<mxfile host="app.diagrams.net" modified="2020-04-06T16:10:12.995Z" agent="5.0 (Windows NT 10.0; Win64; x64) AppleWebKit/537.36 (KHTML, like Gecko) Chrome/75.0.3770.80 Safari/537.36" etag="_ZAOsBhVLQB_baF1eH4n" version="12.9.8" type="github">
  <diagram name="Home" id="2cc2dc42-3aac-f2a9-1cec-7a8b7cbee084">
    <mxGraphModel dx="2844" dy="1764" grid="1" gridSize="10" guides="1" tooltips="1" connect="1" arrows="1" fold="1" page="1" pageScale="1" pageWidth="1100" pageHeight="850" background="#ffffff" math="0" shadow="0">
      <root>
        <mxCell id="0" />
        <mxCell id="1" parent="0" />
        <mxCell id="7026571954dc6520-1" value="" style="strokeWidth=1;shadow=0;dashed=0;align=center;html=1;shape=mxgraph.mockup.containers.browserWindow;rSize=0;strokeColor=#666666;mainText=,;recursiveResize=0;rounded=0;labelBackgroundColor=none;fontFamily=Verdana;fontSize=12;fillColor=#ffffff;movable=0;resizable=0;rotatable=0;deletable=0;editable=0;connectable=0;" parent="1" vertex="1">
          <mxGeometry x="120" y="210" width="1920" height="1080" as="geometry" />
        </mxCell>
        <mxCell id="7026571954dc6520-2" value="Home" style="strokeWidth=1;shadow=0;dashed=0;align=center;html=1;shape=mxgraph.mockup.containers.anchor;fontSize=17;fontColor=#666666;align=left;" parent="7026571954dc6520-1" vertex="1">
          <mxGeometry x="60" y="12" width="110" height="26" as="geometry" />
        </mxCell>
        <mxCell id="7026571954dc6520-3" value="https://www.apfelschuss.io" style="strokeWidth=1;shadow=0;dashed=0;align=center;html=1;shape=mxgraph.mockup.containers.anchor;rSize=0;fontSize=17;fontColor=#666666;align=left;" parent="7026571954dc6520-1" vertex="1">
          <mxGeometry x="130" y="60" width="250" height="26" as="geometry" />
        </mxCell>
        <mxCell id="7026571954dc6520-15" value="" style="verticalLabelPosition=bottom;shadow=0;dashed=0;align=center;html=1;verticalAlign=top;strokeWidth=1;shape=mxgraph.mockup.markup.line;strokeColor=#999999;rounded=0;labelBackgroundColor=none;fillColor=#ffffff;fontFamily=Verdana;fontSize=12;fontColor=#000000;" parent="7026571954dc6520-1" vertex="1">
          <mxGeometry y="170" width="1920" height="20" as="geometry" />
        </mxCell>
        <mxCell id="aO3H_oC8AOVuM4igu8Ia-16" value="" style="shape=image;verticalLabelPosition=bottom;verticalAlign=top;imageAspect=0;aspect=fixed;image=data:image/svg+xml,PHN2ZyB4bWxuczpkYz0iaHR0cDovL3B1cmwub3JnL2RjL2VsZW1lbnRzLzEuMS8iIHhtbG5zOmNjPSJodHRwOi8vY3JlYXRpdmVjb21tb25zLm9yZy9ucyMiIHhtbG5zOnJkZj0iaHR0cDovL3d3dy53My5vcmcvMTk5OS8wMi8yMi1yZGYtc3ludGF4LW5zIyIgeG1sbnM6c3ZnPSJodHRwOi8vd3d3LnczLm9yZy8yMDAwL3N2ZyIgeG1sbnM6c29kaXBvZGk9Imh0dHA6Ly9zb2RpcG9kaS5zb3VyY2Vmb3JnZS5uZXQvRFREL3NvZGlwb2RpLTAuZHRkIiB4bWxuczppbmtzY2FwZT0iaHR0cDovL3d3dy5pbmtzY2FwZS5vcmcvbmFtZXNwYWNlcy9pbmtzY2FwZSIgeG1sbnM9Imh0dHA6Ly93d3cudzMub3JnLzIwMDAvc3ZnIiB4bWxuczp4bGluaz0iaHR0cDovL3d3dy53My5vcmcvMTk5OS94bGluayIgdmVyc2lvbj0iMS4xIiBpZD0ic3ZnMiIgaW5rc2NhcGU6dmVyc2lvbj0iMC40NyByMjI1ODMiIHNvZGlwb2RpOmRvY25hbWU9ImxvZ28uc3ZnIiB4PSIwcHgiIHk9IjBweCIgd2lkdGg9IjE2OC4wMDNweCIgaGVpZ2h0PSI3MHB4IiB2aWV3Qm94PSIyMTMuNjM2IDMzOC4wOTMgMTY4LjAwMyA3MCIgZW5hYmxlLWJhY2tncm91bmQ9Im5ldyAyMTMuNjM2IDMzOC4wOTMgMTY4LjAwMyA3MCIgeG1sOnNwYWNlPSJwcmVzZXJ2ZSI+JiN4YTs8ZGVmcz4mI3hhOwkmI3hhOwkmI3hhOwkJPGlua3NjYXBlOnBlcnNwZWN0aXZlIHNvZGlwb2RpOnR5cGU9Imlua3NjYXBlOnBlcnNwM2QiIGlua3NjYXBlOnZwX3g9IjAgOiA1MjYuMTgxMDkgOiAxIiBpbmtzY2FwZTp2cF95PSIwIDogMTAwMCA6IDAiIGlua3NjYXBlOnZwX3o9Ijc0NC4wOTQ0OCA6IDUyNi4xODEwOSA6IDEiIGlkPSJwZXJzcGVjdGl2ZTEwIiBpbmtzY2FwZTpwZXJzcDNkLW9yaWdpbj0iMzcyLjA0NzI0IDogMzUwLjc4NzM5IDogMSI+JiN4YTsJCTwvaW5rc2NhcGU6cGVyc3BlY3RpdmU+JiN4YTsJJiN4YTsJCTxpbmtzY2FwZTpwZXJzcGVjdGl2ZSBzb2RpcG9kaTp0eXBlPSJpbmtzY2FwZTpwZXJzcDNkIiBpbmtzY2FwZTp2cF94PSIwIDogMC41IDogMSIgaW5rc2NhcGU6dnBfeT0iMCA6IDEwMDAgOiAwIiBpbmtzY2FwZTp2cF96PSIxIDogMC41IDogMSIgaWQ9InBlcnNwZWN0aXZlMjgzMiIgaW5rc2NhcGU6cGVyc3AzZC1vcmlnaW49IjAuNSA6IDAuMzMzMzMzMzMgOiAxIj4mI3hhOwkJPC9pbmtzY2FwZTpwZXJzcGVjdGl2ZT4mI3hhOwkmI3hhOwkJPGlua3NjYXBlOnBlcnNwZWN0aXZlIHNvZGlwb2RpOnR5cGU9Imlua3NjYXBlOnBlcnNwM2QiIGlua3NjYXBlOnZwX3g9IjAgOiAwLjUgOiAxIiBpbmtzY2FwZTp2cF95PSIwIDogMTAwMCA6IDAiIGlua3NjYXBlOnZwX3o9IjEgOiAwLjUgOiAxIiBpZD0icGVyc3BlY3RpdmUyODQ2IiBpbmtzY2FwZTpwZXJzcDNkLW9yaWdpbj0iMC41IDogMC4zMzMzMzMzMyA6IDEiPiYjeGE7CQk8L2lua3NjYXBlOnBlcnNwZWN0aXZlPiYjeGE7CSYjeGE7CQk8aW5rc2NhcGU6cGVyc3BlY3RpdmUgc29kaXBvZGk6dHlwZT0iaW5rc2NhcGU6cGVyc3AzZCIgaW5rc2NhcGU6dnBfeD0iMCA6IDAuNSA6IDEiIGlua3NjYXBlOnZwX3k9IjAgOiAxMDAwIDogMCIgaW5rc2NhcGU6dnBfej0iMSA6IDAuNSA6IDEiIGlkPSJwZXJzcGVjdGl2ZTI4NjAiIGlua3NjYXBlOnBlcnNwM2Qtb3JpZ2luPSIwLjUgOiAwLjMzMzMzMzMzIDogMSI+JiN4YTsJCTwvaW5rc2NhcGU6cGVyc3BlY3RpdmU+JiN4YTsJJiN4YTsJCTxpbmtzY2FwZTpwZXJzcGVjdGl2ZSBzb2RpcG9kaTp0eXBlPSJpbmtzY2FwZTpwZXJzcDNkIiBpbmtzY2FwZTp2cF94PSIwIDogMC41IDogMSIgaW5rc2NhcGU6dnBfeT0iMCA6IDEwMDAgOiAwIiBpbmtzY2FwZTp2cF96PSIxIDogMC41IDogMSIgaWQ9InBlcnNwZWN0aXZlMjkzOCIgaW5rc2NhcGU6cGVyc3AzZC1vcmlnaW49IjAuNSA6IDAuMzMzMzMzMzMgOiAxIj4mI3hhOwkJPC9pbmtzY2FwZTpwZXJzcGVjdGl2ZT4mI3hhOwkmI3hhOwkJPGlua3NjYXBlOnBlcnNwZWN0aXZlIHNvZGlwb2RpOnR5cGU9Imlua3NjYXBlOnBlcnNwM2QiIGlua3NjYXBlOnZwX3g9IjAgOiAwLjUgOiAxIiBpbmtzY2FwZTp2cF95PSIwIDogMTAwMCA6IDAiIGlua3NjYXBlOnZwX3o9IjEgOiAwLjUgOiAxIiBpZD0icGVyc3BlY3RpdmUyOTYxIiBpbmtzY2FwZTpwZXJzcDNkLW9yaWdpbj0iMC41IDogMC4zMzMzMzMzMyA6IDEiPiYjeGE7CQk8L2lua3NjYXBlOnBlcnNwZWN0aXZlPiYjeGE7PC9kZWZzPiYjeGE7PHNvZGlwb2RpOm5hbWVkdmlldyBwYWdlY29sb3I9IiNmZmZmZmYiIGJvcmRlcmNvbG9yPSIjNjY2NjY2IiBib3JkZXJvcGFjaXR5PSIxLjAiIGlua3NjYXBlOnpvb209IjUuNjU2ODU0MyIgaW5rc2NhcGU6Y3g9IjE1MC4yOTM3OCIgaW5rc2NhcGU6Y3k9IjcxNS4xODczNCIgc2hvd2dyaWQ9ImZhbHNlIiBzaG93Z3VpZGVzPSJ0cnVlIiBpZD0iYmFzZSIgaW5rc2NhcGU6cGFnZW9wYWNpdHk9IjAuMCIgaW5rc2NhcGU6cGFnZXNoYWRvdz0iMiIgaW5rc2NhcGU6ZG9jdW1lbnQtdW5pdHM9InB4IiBpbmtzY2FwZTpjdXJyZW50LWxheWVyPSJnMjg2OCIgaW5rc2NhcGU6d2luZG93LXdpZHRoPSIxOTIwIiBpbmtzY2FwZTp3aW5kb3ctaGVpZ2h0PSIxMDE4IiBpbmtzY2FwZTp3aW5kb3cteD0iLTgiIGlua3NjYXBlOndpbmRvdy15PSItOCIgaW5rc2NhcGU6d2luZG93LW1heGltaXplZD0iMSIgaW5rc2NhcGU6Z3VpZGUtYmJveD0idHJ1ZSI+JiN4YTsJPHNvZGlwb2RpOmd1aWRlIG9yaWVudGF0aW9uPSIwLDEiIHBvc2l0aW9uPSI0NjIuOTMzOTcsNTkzLjMwNjc5IiBpZD0iZ3VpZGUzMDYzIi8+JiN4YTs8L3NvZGlwb2RpOm5hbWVkdmlldz4mI3hhOzxnIGlkPSJsYXllcjEiIGlua3NjYXBlOmxhYmVsPSJFYmVuZSAxIiBpbmtzY2FwZTpncm91cG1vZGU9ImxheWVyIj4mI3hhOwk8ZyBpZD0iZmxvd1Jvb3QyODE2IiB0cmFuc2Zvcm09Im1hdHJpeCgxLjEwMDM4MiwwLDAsMS4xMDAzODIsLTEzMC44NTczNSwtMzY4LjA5MjIzKSI+JiN4YTsJPC9nPiYjeGE7CTxnIGlkPSJnMjg2OCIgdHJhbnNmb3JtPSJtYXRyaXgoMC40NzMxMjI5NiwwLDAsMC40NzMxMjI5NiwtMTk0Ljk5NzczLDIyNC41MTI3MykiPiYjeGE7CQkmI3hhOwkJCTxwYXRoIGlkPSJwYXRoMjg3MiIgc29kaXBvZGk6bm9kZXR5cGVzPSJjY2NzY2NjY2Nzc3Nzc3Nzc3Nzc3NjY2Nzc3NzY2Nzc3Nzc2Njc3NjY2Nzc3NzYyIgZmlsbD0iI0ZGRkZGRiIgc3Ryb2tlPSIjMDAwMDAwIiBzdHJva2UtbWl0ZXJsaW1pdD0iMTAiIGQ9IiAgICBNOTU5Ljc1NiwzODcuNzhjLTIuOTAyLTAuNTMzLTcuNzY3LTMuNTA5LTEyLjgzLTcuODU2Yy0xNi40ODgtMTUuNTc4LTI5Ljg5Ni0zNy4xNTEtMjkuNDM0LTYwLjQ1MyAgICBjLTAuMDk3LTQuOTE3LDAuMzQzLTkuOTUzLDEuMjEyLTEzLjg0NmMwLjIzNS0xLjA2MywwLjcwOC0zLjE5MSwxLjA1MS00LjczMWMzLjIxLTE1Ljc0OSwxMy4zNzktMjUuNjQsMjguOTg4LTI3Ljk2MiAgICBjOC4xOTQtMC44NzMsMTkuMzk0LDAuNDc1LDIzLjYzNCwyLjg0Mmw1LjY0NSwxLjA1NWwtMC4wMDYtNC40MDdjLTAuMDEtNS4xMjMtMC43NjgtOS4xNzEtMi4zNDEtMTIuNDk2ICAgIGMtMS4zNzctMi45MDYtNS44NzItNy44MzctOS41MzItMTAuNDQ2Yy0xLjUwNS0xLjA3My0yLjczMy0yLjA0OC0yLjczMy0yLjE2NWMwLTAuNTUxLDUuMjc0LTYuNTA0LDYuMjA1LTcuMDAzICAgIGMwLjk5NS0wLjUzMywxLjI1MS0wLjM5Niw0LjQ2MywyLjMxMmMzLjg3NiwzLjI3LDguMDMxLDguNzE5LDkuMTc1LDEyLjAyNWMwLjg5MiwyLjU3NiwxLjA1OSwxMS4zNTksMC4zNDEsMTcuNjMzICAgIGMtMC4zNDcsMy4wMy0wLjMyMiwzLjkwNSwwLjExMSw0LjE4YzAuNzYsMC40NzcsNi4yMjUtMC4wMDgsOC4xMjgtMC43MmMxLjM5Ny0wLjUyMiw3LjM2LTEuOTE1LDEzLjYxLTMuMTgxICAgIGMzLjIyMi0wLjY1LDkuODIxLTAuNTcsMTMuMzA3LDAuMTY1YzYuNzIzLDEuNDEyLDEyLjQwMyw0LjYyNiwxNi42NzIsOS40MzFjNi4xNTMsNi45MjMsOS43NzYsMTIuMjg5LDExLjI5NywyNS44MTUgICAgYy0wLjIsMTIuNTcyLDAuNDQ2LDE2LjU3OS0xLjI1NywyMy40ODdjLTIuMjQ4LDE1LjAyNC05Ljk1MSwyOC41MjYtMTkuMTEzLDQwLjM4NmMtMi42MjEsMy4wNzgtMTAuOTQsMTAuMjczLTE0LjU4NywxMi42MjQgICAgYy00LjQwMSwyLjgzNi01LjgzNSwzLjI5OC0xMC45NTgsMy41MzRjLTMuOTk0LDAuMTg0LTUuOTIyLTEuNDE4LTkuNDQ5LTIuMTQ5Yy01LjE0NC0xLjA2My0xMC42My0xLjMxMy0xNS4yMzMtMC40MzEgICAgQzk3Mi4yOTUsMzg2LjE1Niw5NjIuMzExLDM4OC4yNTMsOTU5Ljc1NiwzODcuNzhMOTU5Ljc1NiwzODcuNzh6IE0xMDAwLjA1MywzMTAuMjMxYy0wLjM3OC03LjMzNi00Ljk0My0xMC41OTktOS43MjItNi45NSAgICBjLTEuNTc5LDEuMjA1LTEuOTk2LDEuNzktMS45OTYsMi43OTVjMCwxLjgzMywxLjQxNCwzLjA3OCwzLjM2NCwyLjk2MmMyLjc4Mi0wLjE2NSwzLjI3NC0wLjAwNCw1LjQxLDEuNzYxICAgIGMxLjE1NCwwLjk1NCwyLjMxMiwxLjY1NywyLjU3LDEuNTY1Qzk5OS45NTIsMzEyLjI2NiwxMDAwLjExMywzMTEuMzYsMTAwMC4wNTMsMzEwLjIzMUwxMDAwLjA1MywzMTAuMjMxeiBNMTAxMC45NDksMzAwLjA3NSAgICBjMi4xNTctMC45OCwyLjg5LTEuOTc3LDQuMDc5LTUuNTQ0YzEuMDMyLTMuMTA0LDAuOTM3LTYuMTU3LTAuMjI3LTcuMzIzYy0xLjMyMy0xLjMyMy01LjA4Mi0wLjkwNi05LjcwNSwxLjA4MmwtNC4wODMsMS43NTQgICAgbC03LjMwNSwwLjMxYy03LjU2OSwwLjMxOC04LjgxNiwwLjY0OC04LjgxMiwyLjMzOWMwLjAwNCwwLjkwNCwxLjMsMi45NzQsMi43OTEsNC40NDZjMS4xMDIsMS4wOTIsMS40NjEsMS4xODMsNC42ODEsMS4xOTMgICAgYzIuNDM2LDAuMDA4LDQuOTE3LDAuMzg0LDguMjE1LDEuMjQ5QzEwMDYuMTgzLDMwMS4wNSwxMDA4LjU1NywzMDEuMTYxLDEwMTAuOTQ5LDMwMC4wNzVMMTAxMC45NDksMzAwLjA3NXoiLz4mI3hhOwkJJiN4YTsJCQk8cGF0aCBpZD0icGF0aDI4NzAiIHNvZGlwb2RpOm5vZGV0eXBlcz0iY2NjY2NjY2Nzc3Nzc3Nzc3Nzc3Nzc3Nzc2NjY3Nzc3Nzc3NzY2NjY2Njc3Nzc3Nzc3Nzc3Nzc3Nzc2NjY2NjY2NjY3Nzc3Nzc3Nzc3Nzc3Nzc2NjcyIgZmlsbD0iI0ZGRkZGRiIgc3Ryb2tlPSIjMDAwMDAwIiBzdHJva2UtbWl0ZXJsaW1pdD0iMTAiIGQ9IiAgICBNMTEzOS44MTgsMzE3LjQzNGwtNi4zLTMuMDA3bC00Mi4yNDgsMy42MzFjLTIzLjIzNSwxLjk5OC00Ni44NzEsNC4wMzUtNTIuNTIxLDQuNTM1bC0xMC4yNzcsMC45MDJsLTIuMzA0LTEuMjc4bC0xLjI3Ni0yLjQ3MyAgICBsMC4wOTktMi43MjNjMC41Mi0xLjIxNiwxLjgxNi0xLjc1NywyLjExOC0xLjc1N2MwLjI5NywwLDMuNTEzLTAuMzgyLDcuMTQ2LTAuODQ2YzIxLjczNS0yLjc5MSw1Mi4yOTUtNi4wMzcsODAuOTUzLTguNjA1ICAgIGMxNS44NC0xLjQyLDQzLjMwNC0zLjk1Myw2MS4wMzEtNS42MzNjMzEuNzA4LTMuMDAxLDMyLjI1My0zLjA2OSwzMy4zNjItNC4xMTJjMS40NTMtMS4zNjQsMS42NjYtMC44NzEsMS42NywzLjg2NiAgICBjMC4wMDgsMS45MywwLjEyOCw0LjUzMSwwLjI3OSw1Ljc3N2MwLjI3LDIuMjU2LDAuMDIzLDIuMTM4LDIuMTQxLDQuODUxYzEuNjIsMi4wNzIsNS4wOTQsNC40MDEsNS4wOTYsNC41NTcgICAgYzAuMDA2LDAuNDIxLTIuMzI2LDEuNDM1LTE2LjU0MiwwLjE4NGMtMTIuNDA5LTEuMDk0LTE0LjQ1Ny0wLjE2OS0xNC4wNzEsMC4yMTdjMC4xMTYsMC4xMiwyLjI1NiwwLjc2OCw0Ljc1MSwxLjQ0MyAgICBjMi40OTMsMC42NzUsNC43OTMsMS4zODcsNS4xMDIsMS41ODFjMC45NywwLjYwOS0yLjQ4OSwwLjk2Ni05Ljk2OSwxLjAyNGMtNi43LDAuMDUyLTE0Ljg4Mi01LjkyLTguMTYxLDEuMDAxICAgIGMwLjI2LDAuMjY4LDAuOTI1LDEuMTY4LTMuOTMsMS4xMjVjLTQuNjMtMC4wNDMtMTQuMDYxLTIuNDcxLTE0LjA2Ny0yLjA1NmMtMC4wMTQsMC43NzQtMi4xNzgsNC4zNzYtOS42Ny0xLjc0NiAgICBDMTE1Mi4yNDgsMzIyLjk5NSwxMTUwLjMzNywzMjIuMjUsMTEzOS44MTgsMzE3LjQzNEwxMTM5LjgxOCwzMTcuNDM0eiBNMTEzMi42MiwzMTAuOTI4YzUxLjI5NC00LjAzNyw3Ny4yNTItNi4yMzYsNzcuNDYzLTYuNTYyICAgIGMwLjQ1Ni0wLjcxMiwwLjQwMS00LjA1LTAuMDc0LTQuMzQzYy0wLjIxOS0wLjEzOC0xNC41ODEsMC43MS0zMS45MTEsMS44ODdjLTE3LjMzLDEuMTcyLTMzLjczMSwyLjI1NC0zNi40NTIsMi40MDMgICAgYy0yLjcxOCwwLjE0OS03Ljc0OSwwLjY0LTExLjE3NSwxLjA5NGMtMy40MjYsMC40NTItMTguMjIyLDIuMjcxLTMyLjg3Nyw0LjAzOWMtMjEuMTQ2LDIuNTUzLTI4LjU0NCwzLjYxNi0zNS44MzIsNS4xNDQgICAgYy01LjA1MywxLjA1OS05LjI4OCwyLjAzMS05LjQxOCwyLjE1OWMtMC4xMywwLjEzLDAuNTIyLDAuMjM5LDEuNDQ3LDAuMjQ0YzAuOTI3LDAuMDA0LDM2LjM5OC0yLjcyNyw3OC44MzEtNi4wNjRIMTEzMi42MnogICAgIE04NzcuMzU0LDM0MS4yODVjLTcuNDMxLTIuMTY3LTEzLjU3My00LjEzLTEzLjY1Mi00LjM2M2MtMC4wNzgtMC4yMzEsMC40NS0wLjk4NywxLjE2OC0xLjY3NmwxLjMwOS0xLjI1M2w3Ljk3MSwxLjYzNSAgICBjNC4zODQsMC44OTgsOC4wNzcsMS41MzIsOC4yMDMsMS40MDZjMC4xMjgtMC4xMjgtMC4wNjYtMS4wOTgtMC40MjUtMi4xNTdjLTAuNzkzLTIuMzE4LTAuOTM3LTIuMDk5LDQuMjExLTYuMjk1ICAgIGMyLjEzLTEuNzM0LDQuOTY2LTQuMTgyLDYuMzA4LTUuNDM5YzEuMzQ0LTEuMjU5LDIuODAzLTIuMjg5LDMuMjQ1LTIuMjg5YzAuODI2LDAsMS44MzksMC43NiwxLjgzOSwxLjM3OSAgICBjMCwwLjE5LTEuODM5LDEuNTI1LTQuMDg1LDIuOTY0Yy00LjA0NiwyLjU5NS00LjU4NCwzLjEyNy0zLjU0NCwzLjQ5YzAuMjk1LDAuMTAzLDYuNjE3LTAuNTQ5LDE0LjA1LTEuNDQ3ICAgIHMxMy43MzQtMS42NDMsMTMuNzQ3LTEuNTc1YzAuMDcsMC4zNDMsMS4xMjcsNy45MDUsMS4yNzQsOC4zNTVjMC4wMjUsMC4wNzYtNi45OTUsMC43MzMtMTUuMzM2LDEuNTQ4ICAgIGMtOC4zNDUsMC44MTUtMTUuMzY3LDEuNjgyLTE1LjYxMSwxLjkyMmMtMC4yOTcsMC4zMDEsMC4yNzIsMS4xMDgsMS43OTgsMi41NDFjMS4yMjgsMS4xNTQsMi41MDgsMi4zNTksMi44MzgsMi42ODEgICAgYzAuNjU2LDAuNjM2LDAuMjE1LDEuNTAxLTEuMTE1LDIuMTcxQzg5MS4xMTMsMzQ1LjEwMSw4ODUuOTc0LDM0My43OTksODc3LjM1NCwzNDEuMjg1eiBNMTEzNC4xLDMwMS45NzkgICAgYzAuMjU4LTAuNDE1LDUuODkxLTUuMzUyLDguMDkzLTYuNDM4YzEuNjE4LTEuMzU2LDQuODk4LTIuNDAzLDUuMzU0LTIuNjczbDUuMzM2LTEuMTVjMC44ODMsMC43MDYtNi4xMyw3LjE5Ny01LjIyLDcuMjAyICAgIGMwLjU5LDAuMDA0LDE2LjQ2MS0xMS43MDMsMjEuMDA4LTEyLjUwOGwtMy4zOTUsOS41ODhsOC4yNDQtNS4yNTNjOC4xMTYtNS4xNzcsMTAuMzMzLTYuMzUxLDkuNTk0LTUuMDk2ICAgIGMtMC4xOTQsMC4zMzQtMS41MTEsMS45MTgtMi45MTksMy41MjFjLTEuNDEsMS42MDQtMi40NzEsMy4wMDUtMi4zNTcsMy4xMTljMC4xMTEsMC4xMTEsNC4xNjUtMi4xOCw5LjAwOC01LjA5NCAgICBjNS45MjQtMy41NjUsOS42ODUtNS41NDQsMTEuNDk3LTYuMDU0YzEuNDc4LTAuNDE1LDIuODE1LTAuNjMyLDIuOTY4LTAuNDgxYzAuMTQ5LDAuMTUzLTEuMzY2LDEuNzYzLTMuMzczLDMuNTc5ICAgIGMtNS45MDMsNS4zNTItNy41OTQsNy4wNjktNi42NTUsNi43NjhjMC40NzctMC4xNTMsNS40MzktMi44ODEsMTEuMDMtNi4wNjRjMTAuMDA3LTUuNjk5LDEzLjI1NS03LjM2NSwxMy4yNTUtNi43OTEgICAgYzAsMC4xNTktMi45NDMsMy4yODYtNi41NDMsNi45NTJjLTcuNDIyLDcuNTU5LTcuMzc5LDcuMzAxLTEuMjYzLDcuMzUyYzIuNjYzLDAuMDIzLDMuNTM0LDAuMTY3LDMuNDAxLDAuNTY4ICAgIGMtMC4wOTksMC4yOTUtMC42NDgsMC42NzctMS4yMTgsMC44NDhjLTAuOTMzLDAuMjgzLTc0LjE1NCw4LjUzMS03NS41MjUsOC41MDZDMTEzNC4xMTEsMzAyLjM3NywxMTMzLjk2NiwzMDIuMTk1LDExMzQuMSwzMDEuOTc5ICAgIEwxMTM0LjEsMzAxLjk3OUwxMTM0LjEsMzAxLjk3OXoiLz4mI3hhOwk8L2c+JiN4YTsJPGcgaWQ9ImcyOTc4IiB0cmFuc2Zvcm09InRyYW5zbGF0ZSgxNzcwLjAzOTgsMzUzLjQyNzEyKSI+JiN4YTsJPC9nPiYjeGE7PC9nPiYjeGE7PC9zdmc+" parent="7026571954dc6520-1" vertex="1">
          <mxGeometry x="40" y="120" width="120" height="50" as="geometry" />
        </mxCell>
        <mxCell id="aO3H_oC8AOVuM4igu8Ia-18" value="" style="verticalLabelPosition=bottom;shadow=0;dashed=0;align=center;html=1;verticalAlign=top;strokeWidth=1;shape=mxgraph.mockup.markup.line;strokeColor=#999999;rounded=0;labelBackgroundColor=none;fillColor=#ffffff;fontFamily=Verdana;fontSize=12;fontColor=#000000;" parent="7026571954dc6520-1" vertex="1">
          <mxGeometry y="1040" width="1920" height="20" as="geometry" />
        </mxCell>
        <mxCell id="kZ6LtpBwq53aoN_ViM8i-1" value="&lt;font style=&quot;font-size: 17px&quot;&gt;Register&lt;/font&gt;" style="text;html=1;strokeColor=none;fillColor=none;align=center;verticalAlign=middle;whiteSpace=wrap;rounded=0;" parent="7026571954dc6520-1" vertex="1">
          <mxGeometry x="1640" y="135" width="90" height="20" as="geometry" />
        </mxCell>
        <mxCell id="kZ6LtpBwq53aoN_ViM8i-2" value="&lt;span style=&quot;font-weight: normal&quot;&gt;Login&lt;/span&gt;" style="strokeWidth=1;shadow=0;dashed=0;align=center;html=1;shape=mxgraph.mockup.buttons.button;strokeColor=#666666;fontColor=#ffffff;mainText=;buttonStyle=round;fontSize=17;fontStyle=1;fillColor=#008cff;whiteSpace=wrap;" parent="7026571954dc6520-1" vertex="1">
          <mxGeometry x="1760" y="125" width="120" height="40" as="geometry" />
        </mxCell>
        <mxCell id="kZ6LtpBwq53aoN_ViM8i-4" value="&lt;font style=&quot;font-size: 17px&quot;&gt;Archive&lt;/font&gt;" style="text;html=1;strokeColor=none;fillColor=none;align=center;verticalAlign=middle;whiteSpace=wrap;rounded=0;" parent="7026571954dc6520-1" vertex="1">
          <mxGeometry x="1540" y="135" width="90" height="20" as="geometry" />
        </mxCell>
        <mxCell id="kZ6LtpBwq53aoN_ViM8i-5" value="&lt;font style=&quot;font-size: 17px&quot;&gt;Home&lt;/font&gt;" style="text;html=1;strokeColor=none;fillColor=none;align=center;verticalAlign=middle;whiteSpace=wrap;rounded=0;" parent="7026571954dc6520-1" vertex="1">
          <mxGeometry x="1440" y="135" width="90" height="20" as="geometry" />
        </mxCell>
        <mxCell id="kZ6LtpBwq53aoN_ViM8i-7" value="" style="rounded=0;whiteSpace=wrap;html=1;strokeColor=#999999;" parent="7026571954dc6520-1" vertex="1">
          <mxGeometry x="460" y="340" width="1000" height="150" as="geometry" />
        </mxCell>
        <mxCell id="kZ6LtpBwq53aoN_ViM8i-6" value="" style="verticalLabelPosition=bottom;shadow=0;dashed=0;align=center;html=1;verticalAlign=top;strokeWidth=1;shape=mxgraph.mockup.graphics.pieChart;strokeColor=#008cff;parts=10,20,35;partColors=#e0e0e0,#d0d0d0,#c0c0c0,#b0b0b0,#a0a0a0;strokeWidth=2;aspect=fixed;" parent="7026571954dc6520-1" vertex="1">
          <mxGeometry x="1330" y="355" width="120" height="120" as="geometry" />
        </mxCell>
        <mxCell id="kZ6LtpBwq53aoN_ViM8i-8" value="Volksabstimmungen vom 17. Mai 2020" style="text;strokeColor=none;fillColor=none;html=1;fontSize=24;fontStyle=1;verticalAlign=middle;align=left;" parent="7026571954dc6520-1" vertex="1">
          <mxGeometry x="460" y="250" width="580" height="40" as="geometry" />
        </mxCell>
        <mxCell id="kZ6LtpBwq53aoN_ViM8i-9" style="edgeStyle=orthogonalEdgeStyle;rounded=0;orthogonalLoop=1;jettySize=auto;html=1;exitX=0.5;exitY=1;exitDx=0;exitDy=0;" parent="7026571954dc6520-1" source="kZ6LtpBwq53aoN_ViM8i-7" target="kZ6LtpBwq53aoN_ViM8i-7" edge="1">
          <mxGeometry relative="1" as="geometry" />
        </mxCell>
        <mxCell id="kZ6LtpBwq53aoN_ViM8i-12" value="&lt;font style=&quot;font-size: 12px&quot;&gt;Legal Notice&lt;/font&gt;" style="text;html=1;strokeColor=none;fillColor=none;align=left;verticalAlign=middle;whiteSpace=wrap;rounded=0;" parent="7026571954dc6520-1" vertex="1">
          <mxGeometry x="40" y="1055" width="80" height="20" as="geometry" />
        </mxCell>
        <mxCell id="kZ6LtpBwq53aoN_ViM8i-13" value="&lt;font style=&quot;font-size: 12px&quot;&gt;Terms of use&lt;/font&gt;" style="text;html=1;strokeColor=none;fillColor=none;align=left;verticalAlign=middle;whiteSpace=wrap;rounded=0;" parent="7026571954dc6520-1" vertex="1">
          <mxGeometry x="160" y="1055" width="80" height="20" as="geometry" />
        </mxCell>
        <mxCell id="kZ6LtpBwq53aoN_ViM8i-14" value="&lt;font style=&quot;font-size: 12px&quot;&gt;About us&lt;/font&gt;" style="text;html=1;strokeColor=none;fillColor=none;align=left;verticalAlign=middle;whiteSpace=wrap;rounded=0;" parent="7026571954dc6520-1" vertex="1">
          <mxGeometry x="280" y="1055" width="60" height="20" as="geometry" />
        </mxCell>
        <mxCell id="kZ6LtpBwq53aoN_ViM8i-15" value="&lt;div style=&quot;&quot;&gt;&lt;span&gt;Contact&lt;/span&gt;&lt;/div&gt;" style="text;html=1;strokeColor=none;fillColor=none;align=left;verticalAlign=middle;whiteSpace=wrap;rounded=0;" parent="7026571954dc6520-1" vertex="1">
          <mxGeometry x="380" y="1055" width="60" height="20" as="geometry" />
        </mxCell>
        <mxCell id="OOiXnBbGNoox4Q4nxzLM-2" value="&lt;font style=&quot;font-size: 24px&quot;&gt;Volksinitiative vom 18.10.2016 «Mehr bezahlbare Wohnungen»&lt;/font&gt;" style="text;html=1;strokeColor=none;fillColor=none;align=left;verticalAlign=middle;whiteSpace=wrap;rounded=0;" vertex="1" parent="7026571954dc6520-1">
          <mxGeometry x="480" y="360" width="860" height="20" as="geometry" />
        </mxCell>
        <mxCell id="OOiXnBbGNoox4Q4nxzLM-4" value="Details" style="strokeWidth=1;shadow=0;dashed=0;align=center;html=1;shape=mxgraph.mockup.buttons.button;strokeColor=#666666;fontColor=#ffffff;mainText=;buttonStyle=round;fontSize=17;fontStyle=1;fillColor=#008cff;whiteSpace=wrap;" vertex="1" parent="7026571954dc6520-1">
          <mxGeometry x="480" y="430" width="150" height="40" as="geometry" />
        </mxCell>
        <mxCell id="OOiXnBbGNoox4Q4nxzLM-5" value="&lt;font style=&quot;font-size: 15px&quot;&gt;Total Stimmen: 248&amp;nbsp;&lt;/font&gt;" style="text;html=1;strokeColor=none;fillColor=none;align=left;verticalAlign=middle;whiteSpace=wrap;rounded=0;" vertex="1" parent="7026571954dc6520-1">
          <mxGeometry x="650" y="440" width="140" height="20" as="geometry" />
        </mxCell>
        <mxCell id="OOiXnBbGNoox4Q4nxzLM-98" value="" style="rounded=0;whiteSpace=wrap;html=1;strokeColor=#999999;" vertex="1" parent="7026571954dc6520-1">
          <mxGeometry x="460" y="530" width="1000" height="150" as="geometry" />
        </mxCell>
        <mxCell id="OOiXnBbGNoox4Q4nxzLM-145" value="&lt;font style=&quot;font-size: 24px&quot;&gt;Änderung vom 14.12.2018 des Strafgesetzbuches und des Militärstrafgesetzes (Diskriminierung und Aufruf zu Hass aufgrund der sexuellen Orientierung)&lt;/font&gt;" style="text;html=1;strokeColor=none;fillColor=none;align=left;verticalAlign=middle;whiteSpace=wrap;rounded=0;" vertex="1" parent="7026571954dc6520-1">
          <mxGeometry x="480" y="550" width="860" height="60" as="geometry" />
        </mxCell>
        <mxCell id="OOiXnBbGNoox4Q4nxzLM-146" value="" style="verticalLabelPosition=bottom;shadow=0;dashed=0;align=center;html=1;verticalAlign=top;strokeWidth=1;shape=mxgraph.mockup.graphics.pieChart;strokeColor=#008cff;parts=10,20,35;partColors=#e0e0e0,#d0d0d0,#c0c0c0,#b0b0b0,#a0a0a0;strokeWidth=2;aspect=fixed;" vertex="1" parent="7026571954dc6520-1">
          <mxGeometry x="1330" y="545" width="120" height="120" as="geometry" />
        </mxCell>
        <mxCell id="OOiXnBbGNoox4Q4nxzLM-150" value="Details" style="strokeWidth=1;shadow=0;dashed=0;align=center;html=1;shape=mxgraph.mockup.buttons.button;strokeColor=#666666;fontColor=#ffffff;mainText=;buttonStyle=round;fontSize=17;fontStyle=1;fillColor=#008cff;whiteSpace=wrap;" vertex="1" parent="7026571954dc6520-1">
          <mxGeometry x="480" y="620" width="150" height="40" as="geometry" />
        </mxCell>
        <mxCell id="OOiXnBbGNoox4Q4nxzLM-151" value="&lt;font style=&quot;font-size: 15px&quot;&gt;Total Stimmen: 321&amp;nbsp;&lt;/font&gt;" style="text;html=1;strokeColor=none;fillColor=none;align=left;verticalAlign=middle;whiteSpace=wrap;rounded=0;" vertex="1" parent="7026571954dc6520-1">
          <mxGeometry x="650" y="630" width="140" height="20" as="geometry" />
        </mxCell>
        <mxCell id="aO3H_oC8AOVuM4igu8Ia-8" value="1920 px" style="shape=dimension;direction=west;whiteSpace=wrap;html=1;align=center;points=[];verticalAlign=top;spacingTop=-8;labelBackgroundColor=#ffffff" parent="1" vertex="1">
          <mxGeometry x="120" y="110" width="1920" height="70" as="geometry" />
        </mxCell>
        <mxCell id="aO3H_oC8AOVuM4igu8Ia-10" value="460 px" style="shape=dimension;direction=west;whiteSpace=wrap;html=1;align=center;points=[];verticalAlign=top;spacingTop=-8;labelBackgroundColor=#ffffff" parent="1" vertex="1">
          <mxGeometry x="120" y="160" width="460" height="40" as="geometry" />
        </mxCell>
        <mxCell id="aO3H_oC8AOVuM4igu8Ia-11" value="460 px" style="shape=dimension;direction=west;whiteSpace=wrap;html=1;align=center;points=[];verticalAlign=top;spacingTop=-8;labelBackgroundColor=#ffffff" parent="1" vertex="1">
          <mxGeometry x="1580" y="160" width="460" height="40" as="geometry" />
        </mxCell>
        <mxCell id="aO3H_oC8AOVuM4igu8Ia-12" value="1000 px" style="shape=dimension;direction=west;whiteSpace=wrap;html=1;align=center;points=[];verticalAlign=top;spacingTop=-8;labelBackgroundColor=#ffffff" parent="1" vertex="1">
          <mxGeometry x="580" y="160" width="1000" height="40" as="geometry" />
        </mxCell>
        <mxCell id="aO3H_oC8AOVuM4igu8Ia-17" value="60 px" style="shape=dimension;direction=south;whiteSpace=wrap;html=1;align=left;points=[];verticalAlign=middle;labelBackgroundColor=#ffffff;fillColor=#ffffff;" parent="1" vertex="1">
          <mxGeometry x="70" y="320" width="40" height="70" as="geometry" />
        </mxCell>
        <mxCell id="aO3H_oC8AOVuM4igu8Ia-19" value="30 px" style="shape=dimension;direction=south;whiteSpace=wrap;html=1;align=left;points=[];verticalAlign=middle;labelBackgroundColor=#ffffff;fillColor=#ffffff;" parent="1" vertex="1">
          <mxGeometry x="70" y="1260" width="40" height="30" as="geometry" />
        </mxCell>
        <mxCell id="kZ6LtpBwq53aoN_ViM8i-10" value="60 px" style="shape=dimension;direction=south;whiteSpace=wrap;html=1;align=left;points=[];verticalAlign=middle;labelBackgroundColor=#ffffff;fillColor=#ffffff;" parent="1" vertex="1">
          <mxGeometry x="70" y="390" width="40" height="70" as="geometry" />
        </mxCell>
      </root>
    </mxGraphModel>
  </diagram>
</mxfile>
